<svg width="48" height="48" viewBox="0 0 48 48" fill="none" xmlns="http://www.w3.org/2000/svg">
<path d="M9.68408 27.314V15.382C9.68382 14.9902 9.76084 14.6021 9.91073 14.2401C10.0606 13.878 10.2804 13.5491 10.5576 13.2721C10.8348 12.9951 11.1639 12.7755 11.526 12.6259C11.8881 12.4762 12.2762 12.3995 12.6681 12.4H15.6501M9.68408 21.348H14.1581M20.4181 27.314V15.382C20.4078 14.9838 20.4773 14.5875 20.6226 14.2166C20.7678 13.8456 20.9859 13.5075 21.2639 13.2222C21.542 12.9369 21.8743 12.7102 22.2413 12.5553C22.6084 12.4005 23.0027 12.3208 23.4011 12.3208C23.7994 12.3208 24.1938 12.4005 24.5608 12.5553C24.9279 12.7102 25.2602 12.9369 25.5382 13.2222C25.8162 13.5075 26.0343 13.8456 26.1796 14.2166C26.3249 14.5875 26.3944 14.9838 26.3841 15.382V27.314M20.4181 21.348H26.3841M35.3321 27.314L38.3161 30.296M38.3161 24.33C38.3264 24.7282 38.2569 25.1245 38.1116 25.4954C37.9663 25.8664 37.7482 26.2045 37.4702 26.4898C37.1922 26.7751 36.8599 27.0018 36.4928 27.1567C36.1258 27.3115 35.7314 27.3912 35.3331 27.3912C34.9347 27.3912 34.5404 27.3115 34.1733 27.1567C33.8063 27.0018 33.474 26.7751 33.1959 26.4898C32.9179 26.2045 32.6998 25.8664 32.5546 25.4954C32.4093 25.1245 32.3398 24.7282 32.3501 24.33V15.382C32.3398 14.9838 32.4093 14.5875 32.5546 14.2166C32.6998 13.8456 32.9179 13.5075 33.1959 13.2222C33.474 12.9369 33.8063 12.7102 34.1733 12.5553C34.5404 12.4005 34.9347 12.3208 35.3331 12.3208C35.7314 12.3208 36.1258 12.4005 36.4928 12.5553C36.8599 12.7102 37.1922 12.9369 37.4702 13.2222C37.7482 13.5075 37.9663 13.8456 38.1116 14.2166C38.2569 14.5875 38.3264 14.9838 38.3161 15.382V24.33Z" stroke="black" stroke-width="1.8125" stroke-linecap="round" stroke-linejoin="round"/>
<path d="M44.4 5.142H3.6C3.04231 5.14411 2.50819 5.36714 2.11459 5.76224C1.72099 6.15734 1.5 6.69231 1.5 7.25V34.426C1.5 34.9837 1.72099 35.5187 2.11459 35.9138C2.50819 36.3089 3.04231 36.5319 3.6 36.534H8.486C8.04541 38.8212 7.09823 40.9807 5.714 42.854C11.814 42.942 15.674 40.582 17.99 36.534H44.4C44.9591 36.534 45.4953 36.3119 45.8906 35.9166C46.2859 35.5213 46.508 34.9851 46.508 34.426V7.25C46.508 6.69092 46.2859 6.15474 45.8906 5.75942C45.4953 5.36409 44.9591 5.142 44.4 5.142Z" stroke="black" stroke-width="1.8125" stroke-linecap="round" stroke-linejoin="round"/>
</svg>
