<svg width="115" height="115" viewBox="0 0 115 115" fill="none" xmlns="http://www.w3.org/2000/svg">
<path d="M57.1675 3.04883L39.2073 14.2918H23.8197V23.8197L14.1489 29.9652C11.3858 31.6326 9.52783 34.6339 9.52783 38.1116V85.7513C9.52783 88.2782 10.5317 90.7017 12.3185 92.4885C14.1053 94.2754 16.5288 95.2792 19.0558 95.2792H95.2792C100.567 95.2792 104.807 91.0393 104.807 85.7513V38.1116C104.807 34.6339 102.949 31.6326 100.186 29.9652L90.5152 23.8197V14.2918H75.1276M33.3477 23.8197H80.9873V47.0679L57.1675 61.9314L33.3477 47.0679M38.1116 28.5837V35.7296H76.2233V28.5837M23.8197 35.158V41.1129L19.0558 38.1116M90.5152 35.158L95.2792 38.1116L90.5152 41.1129M38.1116 40.4936V47.6395H76.2233V40.4936H38.1116Z" fill="#084935"/>
</svg>
