<svg width="48" height="48" viewBox="0 0 48 48" fill="none" xmlns="http://www.w3.org/2000/svg">
<path d="M9.68396 27.314V15.382C9.6837 14.9902 9.76072 14.6021 9.91061 14.2401C10.0605 13.878 10.2803 13.5491 10.5575 13.2721C10.8347 12.9951 11.1637 12.7755 11.5259 12.6259C11.888 12.4762 12.2761 12.3995 12.668 12.4H15.65M9.68396 21.348H14.158M20.418 27.314V15.382C20.4076 14.9838 20.4772 14.5875 20.6225 14.2166C20.7677 13.8456 20.9858 13.5075 21.2638 13.2222C21.5418 12.9369 21.8742 12.7102 22.2412 12.5553C22.6083 12.4005 23.0026 12.3208 23.401 12.3208C23.7993 12.3208 24.1937 12.4005 24.5607 12.5553C24.9278 12.7102 25.2601 12.9369 25.5381 13.2222C25.8161 13.5075 26.0342 13.8456 26.1795 14.2166C26.3247 14.5875 26.3943 14.9838 26.384 15.382V27.314M20.418 21.348H26.384M35.332 27.314L38.316 30.296M38.316 24.33C38.3263 24.7282 38.2567 25.1245 38.1115 25.4954C37.9662 25.8664 37.7481 26.2045 37.4701 26.4898C37.1921 26.7751 36.8598 27.0018 36.4927 27.1567C36.1257 27.3115 35.7313 27.3912 35.333 27.3912C34.9346 27.3912 34.5403 27.3115 34.1732 27.1567C33.8062 27.0018 33.4738 26.7751 33.1958 26.4898C32.9178 26.2045 32.6997 25.8664 32.5545 25.4954C32.4092 25.1245 32.3396 24.7282 32.35 24.33V15.382C32.3396 14.9838 32.4092 14.5875 32.5545 14.2166C32.6997 13.8456 32.9178 13.5075 33.1958 13.2222C33.4738 12.9369 33.8062 12.7102 34.1732 12.5553C34.5403 12.4005 34.9346 12.3208 35.333 12.3208C35.7313 12.3208 36.1257 12.4005 36.4927 12.5553C36.8598 12.7102 37.1921 12.9369 37.4701 13.2222C37.7481 13.5075 37.9662 13.8456 38.1115 14.2166C38.2567 14.5875 38.3263 14.9838 38.316 15.382V24.33Z" stroke="white" stroke-width="1.8125" stroke-linecap="round" stroke-linejoin="round"/>
<path d="M44.4 5.142H3.6C3.04231 5.14411 2.50819 5.36714 2.11459 5.76224C1.72099 6.15734 1.5 6.69231 1.5 7.25V34.426C1.5 34.9837 1.72099 35.5187 2.11459 35.9138C2.50819 36.3089 3.04231 36.5319 3.6 36.534H8.486C8.04541 38.8212 7.09823 40.9807 5.714 42.854C11.814 42.942 15.674 40.582 17.99 36.534H44.4C44.9591 36.534 45.4953 36.3119 45.8906 35.9166C46.2859 35.5213 46.508 34.9851 46.508 34.426V7.25C46.508 6.69092 46.2859 6.15474 45.8906 5.75942C45.4953 5.36409 44.9591 5.142 44.4 5.142Z" stroke="white" stroke-width="1.8125" stroke-linecap="round" stroke-linejoin="round"/>
</svg>
