<svg width="50" height="50" viewBox="0 0 50 50" fill="none" xmlns="http://www.w3.org/2000/svg">
<path d="M14.0002 34.667C14.5306 34.5123 15.1008 34.5746 15.5852 34.8403C16.0697 35.106 16.4288 35.5532 16.5835 36.0837C16.7382 36.6141 16.6759 37.1843 16.4102 37.6687C16.1445 38.1532 15.6973 38.5123 15.1668 38.667C14.1252 38.9712 13.3752 39.292 12.8939 39.5837C13.3897 39.8816 14.1731 40.2149 15.2606 40.5253C17.6668 41.2128 21.1106 41.667 25.0002 41.667C28.8897 41.667 32.3335 41.2128 34.7397 40.5253C35.8293 40.2149 36.6106 39.8816 37.1064 39.5837C36.6273 39.292 35.8772 38.9712 34.8356 38.667C34.3135 38.5055 33.8758 38.1453 33.6168 37.664C33.3578 37.1828 33.2983 36.6191 33.451 36.0944C33.6038 35.5696 33.9566 35.126 34.4335 34.859C34.9103 34.592 35.473 34.523 36.0002 34.667C37.3918 35.0732 38.6668 35.5941 39.646 36.2628C40.5522 36.8857 41.6668 37.9712 41.6668 39.5837C41.6668 41.2149 40.5252 42.3087 39.6043 42.9316C38.6085 43.6024 37.3064 44.1253 35.8835 44.5316C33.0127 45.3545 29.1668 45.8337 25.0002 45.8337C20.8335 45.8337 16.9877 45.3545 14.1168 44.5316C12.6939 44.1253 11.3918 43.6024 10.396 42.9316C9.47516 42.3066 8.3335 41.2149 8.3335 39.5837C8.3335 37.9712 9.44808 36.8857 10.3543 36.2628C11.3335 35.5941 12.6085 35.0732 14.0002 34.667ZM25.0002 4.16699C29.1442 4.16699 33.1185 5.81319 36.0487 8.74345C38.979 11.6737 40.6252 15.648 40.6252 19.792C40.6252 25.142 37.7085 29.492 34.6877 32.5837C33.4868 33.8002 32.1964 34.9249 30.8272 35.9482C29.5897 36.8774 26.7606 38.6191 26.7606 38.6191C26.224 38.9241 25.6174 39.0844 25.0002 39.0844C24.383 39.0844 23.7763 38.9241 23.2397 38.6191C21.8357 37.8049 20.478 36.9133 19.1731 35.9482C17.8019 34.9274 16.5113 33.8025 15.3127 32.5837C12.2918 29.492 9.37516 25.142 9.37516 19.792C9.37516 15.648 11.0214 11.6737 13.9516 8.74345C16.8819 5.81319 20.8562 4.16699 25.0002 4.16699ZM25.0002 8.33366C21.9612 8.33366 19.0468 9.54087 16.8979 11.6897C14.749 13.8386 13.5418 16.7531 13.5418 19.792C13.5418 23.5753 15.6168 26.9337 18.2918 29.667C20.3043 31.7253 22.521 33.292 24.0564 34.2545L25.0002 34.8253L25.9439 34.2545C27.4772 33.292 29.696 31.7253 31.7085 29.6691C34.3835 26.9337 36.4585 23.5774 36.4585 19.792C36.4585 16.7531 35.2513 13.8386 33.1024 11.6897C30.9536 9.54087 28.0391 8.33366 25.0002 8.33366ZM25.0002 13.542C25.8209 13.542 26.6336 13.7037 27.3919 14.0177C28.1502 14.3318 28.8392 14.7922 29.4196 15.3726C29.9999 15.9529 30.4603 16.6419 30.7744 17.4002C31.0885 18.1585 31.2502 18.9712 31.2502 19.792C31.2502 20.6128 31.0885 21.4255 30.7744 22.1838C30.4603 22.9421 29.9999 23.631 29.4196 24.2114C28.8392 24.7918 28.1502 25.2521 27.3919 25.5662C26.6336 25.8803 25.8209 26.042 25.0002 26.042C23.3426 26.042 21.7528 25.3835 20.5807 24.2114C19.4086 23.0393 18.7502 21.4496 18.7502 19.792C18.7502 18.1344 19.4086 16.5447 20.5807 15.3726C21.7528 14.2005 23.3426 13.542 25.0002 13.542ZM25.0002 17.7087C24.4476 17.7087 23.9177 17.9282 23.527 18.3189C23.1363 18.7096 22.9168 19.2395 22.9168 19.792C22.9168 20.3445 23.1363 20.8744 23.527 21.2651C23.9177 21.6558 24.4476 21.8753 25.0002 21.8753C25.5527 21.8753 26.0826 21.6558 26.4733 21.2651C26.864 20.8744 27.0835 20.3445 27.0835 19.792C27.0835 19.2395 26.864 18.7096 26.4733 18.3189C26.0826 17.9282 25.5527 17.7087 25.0002 17.7087Z" fill="#9C4B3A"/>
</svg>
