<svg width="50" height="50" viewBox="0 0 50 50" fill="none" xmlns="http://www.w3.org/2000/svg">
<path d="M8.33317 41.6663C7.18734 41.6663 6.20678 41.2587 5.3915 40.4434C4.57623 39.6281 4.16789 38.6469 4.1665 37.4997V12.4997C4.1665 11.3538 4.57484 10.3733 5.3915 9.55801C6.20817 8.74273 7.18873 8.3344 8.33317 8.33301H41.6665C42.8123 8.33301 43.7936 8.74134 44.6103 9.55801C45.4269 10.3747 45.8346 11.3552 45.8332 12.4997V37.4997C45.8332 38.6455 45.4255 39.6268 44.6103 40.4434C43.795 41.2601 42.8137 41.6677 41.6665 41.6663H8.33317ZM24.9998 27.083L8.33317 16.6663V37.4997H41.6665V16.6663L24.9998 27.083ZM24.9998 22.9163L41.6665 12.4997H8.33317L24.9998 22.9163ZM8.33317 16.6663V12.4997V37.4997V16.6663Z" fill="#9C4B3A"/>
</svg>
