<svg width="50" height="50" viewBox="0 0 50 50" fill="none" xmlns="http://www.w3.org/2000/svg">
<path d="M34.6438 28.9398L35.5938 27.996L33.3875 25.7794L32.4417 26.7231L34.6438 28.9398ZM38.7792 27.6002L42.7605 29.7648L44.25 27.0189L40.2709 24.8564L38.7792 27.6002ZM43.525 34.0648L40.5667 37.0085L42.7688 39.2231L45.7271 36.2815L43.525 34.0648ZM38.7625 37.9544C35.7417 38.2377 27.9292 37.9856 19.4667 29.5731L17.2625 31.7877C26.4959 40.969 35.2855 41.4189 39.0542 41.0669L38.7625 37.9544ZM19.4667 29.5731C11.4021 21.5523 10.0646 14.8085 9.89795 11.8815L6.77712 12.0585C6.98545 15.7419 8.6417 23.2169 17.2625 31.7877L19.4667 29.5731ZM22.3313 16.6981L22.9292 16.1023L20.7292 13.8877L20.1313 14.4815L22.3313 16.6981ZM23.4042 8.52937L20.7792 5.02103L18.2771 6.89603L20.9021 10.4023L23.4042 8.52937ZM11.9438 4.25645L8.67295 7.50645L10.8771 9.72312L14.1459 6.47312L11.9438 4.25645ZM21.2313 15.5898C20.1271 14.4815 20.1271 14.4815 20.1271 14.4856H20.123L20.1167 14.494C20.0177 14.5938 19.9291 14.7034 19.8521 14.821C19.7396 14.9877 19.6167 15.2065 19.5125 15.4835C19.2589 16.1988 19.1958 16.9677 19.3292 17.7148C19.6084 19.5169 20.85 21.8981 24.0292 25.0606L26.2334 22.844C23.2563 19.8856 22.548 18.0856 22.4167 17.2356C22.3542 16.8315 22.4188 16.6315 22.4375 16.5856C22.45 16.5578 22.45 16.5537 22.4375 16.5731C22.419 16.6019 22.3981 16.629 22.375 16.6544L22.3542 16.6752L22.3334 16.6939L21.2313 15.5898ZM24.0292 25.0606C27.2105 28.2231 29.6042 29.4564 31.4084 29.7315C32.3313 29.8731 33.075 29.7606 33.6396 29.5502C33.9559 29.4345 34.2513 29.2685 34.5146 29.0585L34.6188 28.9648L34.6334 28.9523L34.6396 28.946L34.6417 28.9419C34.6417 28.9419 34.6438 28.9398 33.5417 27.8315C32.4375 26.7231 32.4438 26.721 32.4438 26.721L32.448 26.7169L32.4521 26.7127L32.4646 26.7023L32.4855 26.6814L32.5646 26.619C32.5841 26.6065 32.5792 26.6078 32.55 26.6231C32.498 26.6419 32.2938 26.7064 31.8834 26.6439C31.0209 26.5106 29.2084 25.8023 26.2334 22.844L24.0292 25.0606ZM20.7792 5.01895C18.6542 2.18562 14.4792 1.73562 11.9438 4.25645L14.1459 6.47312C15.2542 5.37103 17.2209 5.48562 18.2771 6.89603L20.7792 5.01895ZM9.90004 11.8835C9.85837 11.1627 10.1896 10.4085 10.8771 9.7252L8.67087 7.50853C7.55212 8.62103 6.67087 10.196 6.77712 12.0585L9.90004 11.8835ZM40.5667 37.0085C39.9959 37.5794 39.3792 37.9002 38.7646 37.9565L39.0542 41.0669C40.5855 40.9231 41.8375 40.1523 42.7709 39.2252L40.5667 37.0085ZM22.9292 16.1023C24.9813 14.0627 25.1334 10.8398 23.4063 8.53145L20.9042 10.4044C21.7438 11.5273 21.6188 13.0002 20.7271 13.8898L22.9292 16.1023ZM42.7625 29.7669C44.4646 30.6919 44.7292 32.871 43.5271 34.0669L45.7313 36.2815C48.523 33.5044 47.6625 28.8731 44.2521 27.021L42.7625 29.7669ZM35.5938 27.9981C36.3938 27.2023 37.6813 27.0064 38.7813 27.6023L40.2729 24.8585C38.0146 23.6294 35.2146 23.969 33.3896 25.7815L35.5938 27.9981Z" fill="#9C4B3A"/>
</svg>
