<svg width="50" height="50" viewBox="0 0 50 50" fill="none" xmlns="http://www.w3.org/2000/svg">
<path d="M24.9998 4.16699C36.5061 4.16699 45.8332 13.4941 45.8332 25.0003C45.8332 36.5066 36.5061 45.8337 24.9998 45.8337C13.4936 45.8337 4.1665 36.5066 4.1665 25.0003C4.1665 13.4941 13.4936 4.16699 24.9998 4.16699ZM24.9998 8.33366C20.5796 8.33366 16.3403 10.0896 13.2147 13.2152C10.0891 16.3408 8.33317 20.5801 8.33317 25.0003C8.33317 29.4206 10.0891 33.6598 13.2147 36.7854C16.3403 39.911 20.5796 41.667 24.9998 41.667C29.4201 41.667 33.6593 39.911 36.785 36.7854C39.9106 33.6598 41.6665 29.4206 41.6665 25.0003C41.6665 20.5801 39.9106 16.3408 36.785 13.2152C33.6593 10.0896 29.4201 8.33366 24.9998 8.33366ZM24.9998 12.5003C25.5101 12.5004 26.0026 12.6877 26.3839 13.0268C26.7653 13.3659 27.0089 13.8331 27.0686 14.3399L27.0832 14.5837V24.1378L32.7228 29.7774C33.0964 30.1523 33.3133 30.6554 33.3295 31.1845C33.3456 31.7135 33.1598 32.2289 32.8097 32.6259C32.4597 33.0229 31.9716 33.2718 31.4447 33.322C30.9178 33.3722 30.3915 33.2199 29.9728 32.8962L29.7769 32.7232L23.5269 26.4732C23.2031 26.1492 22.9952 25.7274 22.9353 25.2732L22.9165 25.0003V14.5837C22.9165 14.0311 23.136 13.5012 23.5267 13.1105C23.9174 12.7198 24.4473 12.5003 24.9998 12.5003Z" fill="#9C4B3A"/>
</svg>
